<html>
<head>
<meta charset="UTF-8">
<meta name="viewport" content="width=device-width, initial-scale=1.0"/>

<style>
.comment
{
    padding-left: 20px;
    margin-top: 4px;
    margin-right: 4px;
    margin-bottom: 4px;
    border: 2px #000 solid;
}
.submission
{
    border: 4px #00f solid;
    padding-left: 20px;
}
.hidden
{
    display: none;
}
</style>
</head>
<body><div class="submission" id="t3_67dusx">
    <p class="userinfo">
        <a href="https://www.reddit.com/u/vcdupper">vcdupper</a>
        <span class="score"> | 29 points</span>
        <span class="timestamp"> | Apr 25 2017 02:40:31</span>
    </p>
    <strong>[MOVIE] Deepwater.Horizon.2016.1080p.Bluray.x265.HEVC.10bit.AAC.7.1-Tigole [2.19GB]</strong>
    <p><p>Add mega<br>
.nz/#!ZixEQQhR<br>
!BDGmOUhDIazlEWrZroSVboRYFljxnoyD-4h5RlxU7SM  </p>
<hr>
<h3><a href="https://youtu.be/ixZnhA7Wmq4">Unsure How To Download?</a>  &lt;------CLICK HERE!!!</h3>
<hr>
<p>SPECS:<br>
Format : Matroska<br>
Format version : Version 4 / Version 2<br>
File size : 2.19 GiB<br>
Duration : 1 h 47 min<br>
Overall bit rate : 2 927 kb/s<br>
Movie name : Deepwater Horizon<br>
Encoded date : UTC 2017-01-03 12:17:41<br>
Writing application : mkvmerge v9.6.0 (\'Slave To Your Mind\') 64bit 
Writing library : libebml v1.3.4 + libmatroska v1.4.5  </p>
<p>Video<br>
ID : 1<br>
Format : HEVC<br>
Format/Info : High Efficiency Video Coding<br>
Format profile : Main 10@L4@Main<br>
Codec ID : V_MPEGH/ISO/HEVC<br>
Duration : 1 h 47 min<br>
Bit rate : 2 518 kb/s<br>
Width : 1 920 pixels<br>
Height : 800 pixels<br>
Display aspect ratio : 2.40:1<br>
Frame rate mode : Constant<br>
Frame rate : 23.976 (24000/1001) FPS<br>
Color space : YUV<br>
Chroma subsampling : 4:2:0<br>
Bit depth : 10 bits<br>
Bits/(Pixel*Frame) : 0.068<br>
Stream size : 1.89 GiB (86%)<br>
Writing library : x265 2.2+15-a18ab7656c30:[Windows][GCC 6.2.0][64 bit] 10bit<br>
Default : Yes<br>
Forced : No  </p>
<p>Audio<br>
ID : 2<br>
Format : AAC<br>
Format/Info : Advanced Audio Codec<br>
Format profile : LC<br>
Codec ID : A_AAC<br>
Duration : 1 h 47 min<br>
Bit rate : 393 kb/s<br>
Channel(s) : 8 channels<br>
Channel positions : Front: L C R, Side: 4, LFE<br>
Sampling rate : 48.0 kHz <br>
Frame rate : 46.875 FPS (1024 spf) 
Compression mode : Lossy<br>
Delay relative to video : 20 ms<br>
Stream size : 302 MiB (13%)<br>
Language : English<br>
Default : Yes<br>
Forced : No  </p>
<p>Text #1<br>
ID : 3<br>
Format : VobSub<br>
Muxing mode : zlib<br>
Codec ID : S_VOBSUB<br>
Codec ID/Info : Picture based subtitle format used on DVDs<br>
Duration : 1 h 36 min<br>
Bit rate : 7 187 b/s<br>
Count of elements : 1505<br>
Stream size : 4.97 MiB (0%)<br>
Language : English<br>
Default : No<br>
Forced : No  </p>
<p>Text #2<br>
ID : 4<br>
Format : VobSub<br>
Muxing mode : zlib<br>
Codec ID : S_VOBSUB<br>
Codec ID/Info : Picture based subtitle format used on DVDs<br>
Duration : 1 h 38 min<br>
Bit rate : 7 356 b/s<br>
Count of elements : 1665<br>
Stream size : 5.17 MiB (0%)<br>
Language : Spanish<br>
Default : No<br>
Forced : No  </p></p>
    <p class="toolbar">
        <a href="https://www.reddit.com/r/megalinks/comments/67dusx">permalink</a>
    </p>
</div>
<div class="comment" id="t1_dgpoge9">
    <p class="userinfo">
        <a
        class="toggle_hide_button"
        href="javascript:void(0)"
        onclick="toggle_collapse(this.parentElement.parentElement)">[-]
        </a>
        <a href="https://www.reddit.com/u/alienpirate">alienpirate</a>
        <span class="score"> | 3 points</span>
        <span class="timestamp"> | Apr 25 2017 02:52:49</span>
    </p>
    <div class="collapsible">
        <p>This movie was amazing and sad at the same time</p>
        <p class="toolbar">
            <a href="https://www.reddit.com/r/megalinks/comments/67dusx/_/dgpoge9">permalink</a>
        </p>
        
    </div>
</div>

<div class="comment" id="t1_dgpo0pg">
    <p class="userinfo">
        <a
        class="toggle_hide_button"
        href="javascript:void(0)"
        onclick="toggle_collapse(this.parentElement.parentElement)">[-]
        </a>
        <a href="https://www.reddit.com/u/SubZorro">SubZorro</a>
        <span class="score"> | 1 points</span>
        <span class="timestamp"> | Apr 25 2017 02:43:05</span>
    </p>
    <div class="collapsible">
        <h5>Subtitles for this movie:</h5>
<hr>
<blockquote>
<ul>
<li>
<p><strong>Deepwater.Horizon.2016.720p.BluRay.x264-SPARKS</strong> - <code>1 CD</code> - <a href="http://dl.opensubtitles.org/en/download/vrf-b4ba1c1d/sub/6837155">Download Subtitle</a></p>
</li>
<li>
<p><strong>Deepwater Horizon 2016 720p-x264-AAC.srt</strong> - <code>1 CD</code> - <a href="http://dl.opensubtitles.org/en/download/vrf-fda14634/sub/6832164">Download Subtitle</a></p>
</li>
<li>
<p><strong>Deepwater Horizon 2016 REPACK 1080p BluRay x264 DTS-JYK</strong> - <code>1 CD</code> - <a href="http://dl.opensubtitles.org/en/download/vrf-7b2be1a7/sub/6848865">Download Subtitle</a></p>
</li>
<li>
<p><strong>Deepwater.Horizon.2016.HDRip.XviD.AC3-EVO</strong> - <code>1 CD</code> - <a href="http://dl.opensubtitles.org/en/download/vrf-1fe9366a/sub/6832242">Download Subtitle</a></p>
</li>
<li>
<p><strong>Deepwater.Horizon.2016.1080p.WEB-DL.DD5.1.H264-FGT.mkv</strong> - <code>1 CD</code> - <a href="http://dl.opensubtitles.org/en/download/vrf-b2c682ec/sub/6836741">Download Subtitle</a></p>
</li>
<li>
<p><strong>Deepwater.Horizon.2016.720p.BluRay.x264-SPARKS.HI</strong> - <code>1 CD</code> - <a href="http://dl.opensubtitles.org/en/download/vrf-70834c90/sub/6837339">Download Subtitle</a></p>
</li>
<li>
<p><strong>Deepwater Horizon 2016 720p WEB x264 AC3 Moita</strong> - <code>1 CD</code> - <a href="http://dl.opensubtitles.org/en/download/vrf-b2b3e536/sub/6831278">Download Subtitle</a></p>
</li>
<li>
<p><strong>Deepwater.Horizon.2016.WEB-DL.x264-FGT</strong> - <code>1 CD</code> - <a href="http://dl.opensubtitles.org/en/download/vrf-ae1daeaf/sub/6831912">Download Subtitle</a></p>
</li>
</ul>
</blockquote>
<hr>
<p>^This ^list ^of ^subtitles ^are ^taken ^from <a href="http://www.opensubtitles.org">^opensubtitles.org</a> ^| ^For ^feedback ^or ^suggestions ^contact <a href="http://www.reddit.com/message/compose/?to=indigo6alpha">^/u/indigo6alpha</a></p>
        <p class="toolbar">
            <a href="https://www.reddit.com/r/megalinks/comments/67dusx/_/dgpo0pg">permalink</a>
        </p>
        
    </div>
</div>
</body>

<script>
function toggle_collapse(comment_div)
{
    var button = comment_div.getElementsByClassName("toggle_hide_button")[0];
    var collapsible = comment_div.getElementsByClassName("collapsible")[0];
    if (collapsible.classList.contains("hidden"))
    {
        collapsible.classList.remove("hidden");
        button.innerText = "[-]";
    }
    else
    {
        collapsible.classList.add("hidden");
        button.innerText = "[+]";
    }
}
</script>
</html>
